<svg width="19" height="18" viewBox="0 0 19 18" fill="none" xmlns="http://www.w3.org/2000/svg"><path fill-rule="evenodd" clip-rule="evenodd" d="M4.12 1.8c-.16 0-.31.02-.46.05-.2-.44-.46-.83-.76-1.14C2.39.21 1.59 0 .47 0v1.8c.68 0 1.07.1 1.16.19.34.34.63 1.03.63 1.61l.01.13.88 6.17a2.8 2.8 0 0 0-2.68 2.66v.94a2.82 2.82 0 0 0 2.64 2.7h.2a2.69 2.69 0 0 0 5.07 0h2.1a2.69 2.69 0 0 0 5.22-.9 2.7 2.7 0 0 0-5.22-.9h-2.1a2.69 2.69 0 0 0-5.07 0h-.15c-.46-.03-.87-.44-.9-.95v-.85a.99.99 0 0 1 .94-.9H14.01l.13-.04a2.36 2.36 0 0 0 1.48-1.4l.1-.19.3-.6a1237.02 1237.02 0 0 0 2.29-4.6c.54-1.22-.56-2.15-1.68-2.17L4.12 1.8Zm9.58 8.1H5.05a.15.15 0 0 1-.1-.13L4.05 3.6l12.44.9-1.13 2.27-.02.03c-.3.6-.6 1.22-.93 1.85l-.3.61-.12.23-.04.1a.56.56 0 0 1-.26.31Zm-.69 6.3c.5 0 .9-.4.9-.9s-.4-.9-.9-.9-.9.4-.9.9.4.9.9.9Zm-6.27-.9a.9.9 0 1 1-1.79 0 .9.9 0 1 1 1.8 0Z" fill="#fff"/></svg>