<svg width="90" height="90" viewBox="0 0 90 90" fill="none" xmlns="http://www.w3.org/2000/svg"><path d="M79.42 18.23H70.5v-2.55a3.84 3.84 0 0 0-3.83-3.83h-8.92V8.03a1.28 1.28 0 0 0-1.27-1.28H8.02a1.27 1.27 0 0 0-1.28 1.28v71.4a1.28 1.28 0 0 0 1.28 1.27H46.5a3.84 3.84 0 0 0 3.6 2.55h7.65a3.84 3.84 0 0 0 3.83-3.83V57.75h1.27a1.28 1.28 0 0 0 1.27-1.27v-5.1a1.27 1.27 0 0 0-1.27-1.28h-5.1V45h21.67a3.84 3.84 0 0 0 3.83-3.83V22.05a3.84 3.84 0 0 0-3.83-3.82Zm-8.92 10.2v-2.55h5.1v11.47H57.75v-5.1h8.92a3.84 3.84 0 0 0 3.83-3.82ZM66.67 14.4a1.28 1.28 0 0 1 1.28 1.28v12.75a1.27 1.27 0 0 1-1.28 1.27h-45.9a1.27 1.27 0 0 1-1.27-1.27V15.68a1.27 1.27 0 0 1 1.27-1.28h45.9ZM38.63 33.53a3.84 3.84 0 0 0-3.82 3.82v8.92a1.27 1.27 0 1 1-2.55 0v-3.82a3.83 3.83 0 1 0-7.65 0v14.02a1.27 1.27 0 1 1-2.55 0V32.26H45v10.2a1.27 1.27 0 1 1-2.55 0v-5.1a3.84 3.84 0 0 0-3.83-3.83Zm7.66 44.62H9.3V9.3h45.9v2.55H20.77a3.84 3.84 0 0 0-3.82 3.83v2.55h-1.27a2.56 2.56 0 0 0-2.55 2.54v2.55a2.56 2.56 0 0 0 2.54 2.55h1.28v2.55a3.84 3.84 0 0 0 2.55 3.6v24.45a3.83 3.83 0 1 0 7.65 0V42.45a1.27 1.27 0 1 1 2.55 0v3.82a3.83 3.83 0 1 0 7.65 0v-8.92a1.27 1.27 0 1 1 2.55 0v5.1a3.83 3.83 0 1 0 7.65 0v-10.2h7.65v5.1h-1.28a3.84 3.84 0 0 0-3.82 3.82v8.93H45a1.27 1.27 0 0 0-1.27 1.27v5.1A1.27 1.27 0 0 0 45 57.76h1.27v20.4ZM16.95 20.77v2.55h-1.27v-2.55h1.27Zm42.08 58.66a1.28 1.28 0 0 1-1.28 1.27H50.1a1.27 1.27 0 0 1-1.27-1.28V57.75h10.2v21.67Zm2.55-26.78v2.55h-15.3v-2.55h15.3ZM80.7 41.17a1.27 1.27 0 0 1-1.28 1.28H57.75A2.56 2.56 0 0 0 55.2 45v5.1h-2.55v-8.93a1.27 1.27 0 0 1 1.27-1.27H75.6a2.56 2.56 0 0 0 2.55-2.55V25.87a2.56 2.56 0 0 0-2.55-2.55h-5.1v-2.55h8.92a1.28 1.28 0 0 1 1.28 1.28v19.12Z" fill="#CA2C37"/><path d="M23.32 62.85a3.82 3.82 0 1 0 0 7.65 3.82 3.82 0 0 0 0-7.65Zm0 5.1a1.28 1.28 0 1 1 0-2.55 1.28 1.28 0 0 1 0 2.55ZM33.52 52.65a3.82 3.82 0 1 0 0 7.65 3.82 3.82 0 0 0 0-7.65Zm0 5.1a1.27 1.27 0 1 1 0-2.55 1.27 1.27 0 0 1 0 2.55ZM22.05 18.23a1.27 1.27 0 0 0 1.27 1.27h34.43a1.28 1.28 0 0 0 0-2.55H23.33a1.27 1.27 0 0 0-1.28 1.28ZM62.85 19.5h1.27a1.27 1.27 0 1 0 0-2.55h-1.27a1.27 1.27 0 1 0 0 2.55Z" fill="#CA2C37"/></svg>