<svg width="90" height="90" viewBox="0 0 90 90" fill="none" xmlns="http://www.w3.org/2000/svg"><path d="M72.02 33.76H66.6L68.23 15v-.11c0-.51-.3-.96-.76-1.16a1.19 1.19 0 0 0-.1-.03l-.03-.02-.07-.01-.05-.02h-.07l-.06-.02H41.13a1.26 1.26 0 0 0 0 2.52H65.6L63.08 45l-.63 7.29H18.58l.73-7.58h8.36a1.26 1.26 0 1 0 0-2.52h-8.11l1.55-16h13.3a1.26 1.26 0 1 0 0-2.52H21.34l.73-7.52h14a1.27 1.27 0 0 0 0-2.52H20.95c-.6 0-1.11.42-1.24 1l-.02.1v.04l-.86 8.9H3.52a1.26 1.26 0 1 0 0 2.53h15.05l-1.55 15.99h-4.5a1.26 1.26 0 1 0 0 2.52h4.26l-.85 8.7v.01l-1.3 13.47v.26l.01.1v.02l.03.07.01.05v.02c.07.18.17.35.3.5H15l.04.04c.1.08.19.14.3.2l.06.03h.03l.1.04.11.03h.02l.11.02h5.75a9.62 9.62 0 0 0 9.53 8.36c4.87 0 8.9-3.65 9.52-8.35h20.25a9.63 9.63 0 0 0 9.53 8.35c4.87 0 8.9-3.65 9.53-8.35h5.75l.02-.01c.03 0 .06 0 .1-.02h.04l.07-.02.05-.02.06-.02.05-.02a1.56 1.56 0 0 0 .25-.16c.02 0 .03-.02.05-.03l.05-.05.03-.03.05-.06.03-.03.05-.07.02-.02a1.27 1.27 0 0 0 .11-.21l.01-.03.03-.08.02-.06.01-.06.01-.06.01-.05c.06-.43 1.04-8.36 1.49-13.49v-.01c.12-1.48.2-2.72.2-3.49 0-9.05-7.36-16.4-16.4-16.4Zm-5.64 2.53h5.16l-.66 7.57h-5.16l.66-7.57Zm-35.34 37.8a7.1 7.1 0 1 1 .01-14.19 7.1 7.1 0 0 1-.01 14.2Zm39.3 0a7.1 7.1 0 1 1 .02-14.19 7.1 7.1 0 0 1-.02 14.2Zm14.03-8.35h-4.5a9.63 9.63 0 0 0-9.53-8.35 9.63 9.63 0 0 0-9.53 8.35H40.56a9.62 9.62 0 0 0-9.52-8.35 9.63 9.63 0 0 0-9.53 8.35h-4.23l1.06-10.94h45.42l.1-.02.04-.01.07-.02.05-.02.06-.02.06-.03.05-.02.05-.03.05-.03.05-.04a1.24 1.24 0 0 0 .22-.2l.03-.04a1.27 1.27 0 0 0 .11-.15l.02-.05.03-.06.03-.05.02-.06.02-.05.01-.06.02-.06v-.06l.01-.06v-.01l.64-7.27h6.52c3.87 0 5.62 2 7.46 4.13 1.53 1.75 3.23 3.7 6.12 4.18-.37 3.89-.96 8.87-1.23 11.05Zm1.44-13.58c-1.87-.38-3.03-1.7-4.42-3.3-1.75-2.02-3.89-4.47-7.98-4.92l.65-7.5a13.9 13.9 0 0 1 11.85 13.73c0 .48-.04 1.16-.1 2Z" fill="#fff"/><path d="M31.04 62.38a4.63 4.63 0 1 0 0 9.27 4.63 4.63 0 0 0 0-9.27Zm0 6.73a2.1 2.1 0 1 1 0-4.21 2.1 2.1 0 0 1 0 4.21ZM70.34 62.38a4.63 4.63 0 1 0 .01 9.27 4.63 4.63 0 0 0-.01-9.27Zm0 6.73a2.1 2.1 0 1 1 0-4.21 2.1 2.1 0 0 1 0 4.21ZM14.2 33.76H8.03a1.26 1.26 0 1 0 0 2.53h6.17a1.26 1.26 0 1 0 0-2.53Z" fill="#fff"/></svg>