<svg width="108" height="18" viewBox="0 0 108 18" fill="none" xmlns="http://www.w3.org/2000/svg"><path fill-rule="evenodd" clip-rule="evenodd" d="M103.46 2.66v14.79h-2.11V2.65H97.6V1.03h9.6v1.64h-3.74Zm-8.13 8.7c-.36.46-.82.79-1.38.98-.55.2-1.21.3-1.98.3a11.97 11.97 0 0 1-2.34-.24v5.05h-2.11V1.25c.59-.17 1.19-.3 1.79-.36.6-.07 1.25-.11 1.96-.11.93 0 1.73.1 2.39.3.65.19 1.19.51 1.6.97.4.45.7 1.05.88 1.8.2.76.28 1.69.28 2.8 0 1.14-.09 2.1-.26 2.86a4.62 4.62 0 0 1-.83 1.85Zm-1.2-6.82a3.3 3.3 0 0 0-.54-1.34 2 2 0 0 0-.95-.7 4.2 4.2 0 0 0-1.37-.2h-1.64V11h1.64c.53 0 .99-.07 1.37-.2a2 2 0 0 0 .95-.7c.25-.33.43-.77.55-1.34.12-.56.17-1.26.17-2.11 0-.85-.05-1.55-.17-2.11Zm-11.89 8.68h-4.69l-1.05 4.23h-2.11l3.98-16.43h3.05l3.99 16.43H83.3l-1.06-4.23Zm-2.3-9.86h-.1l-1.94 8.22h3.99l-1.95-8.22ZM69.81 5.24h-.11l-3.4 10.1h-2.11l-3.4-10.1h-.12l-.7 12.21h-2.11l.94-16.43h2.57l3.83 11.26h.09l3.82-11.26h2.58l.94 16.43h-2.11l-.7-12.2ZM54.06 15.92c-.44.65-.97 1.1-1.58 1.37-.62.26-1.33.4-2.12.4-.8 0-1.5-.14-2.13-.4a3.68 3.68 0 0 1-1.58-1.37 7.22 7.22 0 0 1-1-2.6 20.58 20.58 0 0 1-.33-4.09c0-1.64.1-3 .34-4.1a7.22 7.22 0 0 1 1-2.59c.43-.64.96-1.1 1.57-1.36.62-.27 1.33-.4 2.13-.4.8 0 1.5.13 2.12.4.62.27 1.14.72 1.58 1.36.44.64.77 1.5 1 2.6.22 1.08.34 2.45.34 4.1 0 1.64-.12 3-.34 4.09a7.22 7.22 0 0 1-1 2.6ZM53.04 5.76a8.2 8.2 0 0 0-.64-2.16c-.27-.53-.58-.9-.94-1.1-.36-.2-.73-.31-1.1-.31-.38 0-.75.1-1.1.3-.37.2-.68.58-.94 1.1a8.2 8.2 0 0 0-.65 2.17c-.16.9-.24 2.06-.24 3.47 0 1.41.08 2.57.24 3.48.17.9.38 1.63.65 2.16.26.53.57.9.93 1.1.36.2.73.3 1.1.3.38 0 .75-.1 1.1-.3.37-.2.68-.57.95-1.1a8.2 8.2 0 0 0 .64-2.16c.16-.91.25-2.07.25-3.48 0-1.4-.09-2.56-.25-3.47ZM40.39 9.94h-4.92v7.51h-2.11V1.02h2.1v7.27h4.93V1.02h2.11v16.43h-2.1V9.94Zm-11.13 7.51-2.93-7.04-2.93 7.04h-2.11L24.8 9l-3.16-7.98h2.1l2.59 6.57 2.57-6.57h2.11L27.85 9l3.52 8.45h-2.11ZM12.02 1.02H20v1.64h-5.87v5.4h5.16V9.7h-5.16v6.1H20v1.65h-7.98V1.02ZM6.4 17.45H4.29V2.65H.54V1.03h9.6v1.64H6.4v14.79Z" fill="#fff"/></svg>