<svg width="17" height="16" viewBox="0 0 17 16" fill="none" xmlns="http://www.w3.org/2000/svg"><path fill-rule="evenodd" clip-rule="evenodd" d="M7.53 5.07c.41-.56.56-1.15.1-1.67A25.54 25.54 0 0 0 5.42.58a2.17 2.17 0 0 0-2.96 0l-.93.93C-.7 3.76.66 8.51 4.3 12.15c3.63 3.64 8.37 5 10.62 2.76l.93-.94c.72-.76.82-2.08 0-2.94-.43-.45-1.3-1.12-2.83-2.22-.47-.42-1.02-.33-1.53.01-.25.16-.43.32-.76.66l-.62.62c-.08.08-1.17-.47-2.23-1.54C6.8 7.5 6.27 6.4 6.35 6.32l.6-.61a11.92 11.92 0 0 0 .58-.64Zm3.71 6.16.62-.62c.18-.18.3-.3.4-.38 1.34.97 2.12 1.58 2.44 1.9.19.2.16.57 0 .74l-.9.9c-1.45 1.45-5.28.35-8.37-2.75-3.1-3.1-4.2-6.94-2.76-8.38l.92-.92c.14-.14.54-.17.71 0 .34.34.98 1.15 1.9 2.45a3.38 3.38 0 0 1-.37.4l-.61.62C4.18 6.23 5.06 8 6.75 9.69c1.68 1.69 3.45 2.58 4.5 1.54ZM9.77.06a7.6 7.6 0 0 1 6.6 6.62l-1.57.26a6 6 0 0 0-5.3-5.3L9.77.06Zm-.53 3.16a4.4 4.4 0 0 1 3.98 3.98l-1.58.27A2.8 2.8 0 0 0 8.98 4.8l.26-1.58Z" fill="#293449"/></svg>