<svg width="36" height="36" viewBox="0 0 36 36" fill="none" xmlns="http://www.w3.org/2000/svg"><path fill-rule="evenodd" clip-rule="evenodd" d="M17.91 1.21a16.64 16.64 0 1 1 0 33.28 16.64 16.64 0 0 1 0-33.28Z" fill="#fff" fill-opacity=".1"/><path d="M18.04 7a11.05 11.05 0 1 0 .01 22.1A11.05 11.05 0 0 0 18.04 7Zm0 .96a10.07 10.07 0 1 1-2.93 19.73c.41-.7.95-1.68 1.16-2.5l.64-2.45c.34.64 1.32 1.19 2.37 1.19 3.1 0 5.35-2.87 5.35-6.42 0-3.41-2.78-5.96-6.36-5.96-4.46 0-6.82 2.99-6.82 6.24 0 1.52.8 3.4 2.1 4 .19.1.3.05.34-.14l.29-1.17c.02-.1.01-.2-.07-.3a4.01 4.01 0 0 1-.77-2.35A4.47 4.47 0 0 1 18 13.35c2.53 0 4.3 1.73 4.3 4.2 0 2.8-1.4 4.73-3.24 4.73-1.01 0-1.77-.84-1.53-1.87.3-1.23.86-2.55.86-3.43 0-.8-.43-1.46-1.3-1.46-1.04 0-1.87 1.07-1.87 2.5 0 .92.3 1.54.3 1.54l-1.2 5.13c-.2.8-.14 1.89-.06 2.7a10.07 10.07 0 0 1 3.78-19.43Z" fill="#FEFAFA"/></svg>