<svg width="40" height="40" viewBox="0 0 40 40" fill="none" xmlns="http://www.w3.org/2000/svg"><rect width="40" height="40" rx="2" fill="#63A63E"/><path fill-rule="evenodd" clip-rule="evenodd" d="M14.65 11.8c-.16 0-.31.02-.46.05a3.9 3.9 0 0 0-.76-1.14c-.51-.5-1.32-.71-2.43-.71v1.8c.68 0 1.07.1 1.16.19.34.34.63 1.03.63 1.61l.01.13.88 6.17A2.8 2.8 0 0 0 11 22.56v.94a2.82 2.82 0 0 0 2.64 2.7h.2a2.7 2.7 0 0 0 5.08 0h2.1a2.7 2.7 0 0 0 5.23-.9 2.7 2.7 0 0 0-5.23-.9h-2.1a2.7 2.7 0 0 0-5.08 0h-.15c-.46-.03-.87-.44-.9-.95v-.85a.99.99 0 0 1 .94-.9h10.83l.13-.04a2.36 2.36 0 0 0 1.48-1.4l.1-.19.3-.6a1348.24 1348.24 0 0 0 2.29-4.6c.54-1.22-.56-2.15-1.68-2.17l-12.53-.9Zm9.6 8.1h-8.66a.15.15 0 0 1-.11-.13l-.88-6.17 12.45.9-1.14 2.27v.03l-.94 1.85-.3.61-.12.23-.05.1a.56.56 0 0 1-.25.31Zm-.7 6.3a.9.9 0 1 0 0-1.8.9.9 0 0 0 0 1.8Zm-6.27-.9a.9.9 0 1 1-1.8 0 .9.9 0 0 1 1.8 0Z" fill="#fff"/></svg>