<svg width="90" height="90" viewBox="0 0 90 90" fill="none" xmlns="http://www.w3.org/2000/svg"><path d="M73.63 9.07H44.61a3.28 3.28 0 0 0-3.24 2.86h-4.23a2.82 2.82 0 0 0-2.81 2.81v.24h-4.44a7.75 7.75 0 0 0-7.64 6.46H2.39a1.26 1.26 0 1 0 0 2.53h19.86a7.75 7.75 0 0 0 7.64 6.47h4.44v.24a2.82 2.82 0 0 0 2.81 2.8h4.23a3.28 3.28 0 0 0 3.24 2.87h1.9c.31 2.11.8 5.61-1.24 8.84-.52.84-.38 1.46-.17 1.84.2.38.66.84 1.63.84h5.28l-1.48 14.96h-5a8.5 8.5 0 0 0-8.5 8.49v6.32c0 1.2.96 2.16 2.15 2.16h32.37c1.2 0 2.16-.97 2.16-2.16V65c0-1.19-.96-2.16-2.16-2.16h-3.5c.05-3.33.28-6.52.69-9.48a1.26 1.26 0 1 0-2.5-.35 79.97 79.97 0 0 0-.7 9.83H53.06l1.6-16.1 1.02-10.38h15.72a42.73 42.73 0 0 0-4.12 11 1.26 1.26 0 0 0 2.46.58 39.11 39.11 0 0 1 4.6-11.6A13.67 13.67 0 0 0 87.3 22.7c0-7.52-6.13-13.64-13.67-13.64ZM29.89 27.92a5.22 5.22 0 1 1 0-10.42h4.44v10.42h-4.44Zm6.96 2.75V14.74a.3.3 0 0 1 .3-.29h4.19v16.51h-4.2a.3.3 0 0 1-.29-.29Zm34.34 46.6H39.55v-5.95a5.98 5.98 0 0 1 5.97-5.96h1.82v2.58c0 2.4 2.62 4.64 4.64 4.64h19.2v4.7Zm0-11.91v4.7h-19.2c-.64 0-2.12-1.11-2.12-2.12v-2.58h21.31ZM52.26 45.34h-4.19c1.66-3.44 1.3-6.87 1-9h4.08l-.89 9Zm21.37-11.52h-5.15v-7.7a1.26 1.26 0 1 0-2.52 0v7.7H44.61a.76.76 0 0 1-.75-.75V12.34c0-.4.35-.74.75-.74h21.35v8.7a1.26 1.26 0 1 0 2.52 0v-8.7h5.15c6.14 0 11.14 4.98 11.14 11.1 0 6.13-5 11.12-11.14 11.12Z" fill="#fff"/><path d="M72.7 19.64c-.69 0-1.25.56-1.25 1.26v3.62a1.26 1.26 0 1 0 2.52 0V20.9c0-.7-.56-1.26-1.26-1.26ZM78.29 19.64c-.7 0-1.27.56-1.27 1.26v3.62a1.26 1.26 0 1 0 2.53 0V20.9c0-.7-.57-1.26-1.26-1.26ZM57.08 14.72h-5.69a4.36 4.36 0 0 0 0 8.7h5.69a4.35 4.35 0 0 0 0-8.7Zm0 6.17h-5.69c-1 0-1.83-.82-1.83-1.82s.82-1.82 1.83-1.82h5.69a1.83 1.83 0 0 1 0 3.64Z" fill="#fff"/></svg>